
        <svg xmlns="http://www.w3.org/2000/svg" xmlns:xlink="http://www.w3.org/1999/xlink" version="1.1" width="3187.5" 
        height="1125.6799453741585" viewBox="0 0 3187.5 1125.6799453741585">
			<rect fill="#111111" width="3187.5" height="1125.6799453741585"/>
			<g transform="scale(9.375) translate(10, 10)">
				<defs id="SvgjsDefs1241"></defs><g id="SvgjsG1242" featureKey="QMusi1-0" transform="matrix(1.1408046732328154,0,0,1.1408046732328154,-6.284206428271401,-7.79625926307597)" fill="#9896f1"><path xmlns="http://www.w3.org/2000/svg" d="M50,93.166C26.198,93.166,6.834,73.802,6.834,50S26.198,6.834,50,6.834S93.166,26.198,93.166,50S73.802,93.166,50,93.166z   M50,8.834C27.301,8.834,8.834,27.301,8.834,50S27.301,91.166,50,91.166S91.166,72.699,91.166,50S72.699,8.834,50,8.834z"></path><path xmlns="http://www.w3.org/2000/svg" d="M44.714,46.55l-0.107-0.742c18.198-2.623,28.245-13.025,31.72-17.375l0.586,0.468C73.382,33.32,63.177,43.889,44.714,46.55z  "></path><circle xmlns="http://www.w3.org/2000/svg" cx="44.793" cy="46.114" r="2.82"></circle><circle xmlns="http://www.w3.org/2000/svg" cx="76.514" cy="28.767" r="2.82"></circle><path xmlns="http://www.w3.org/2000/svg" d="M33.874,80.997c-3.484-4.387-9.012-13.539-6.895-25.552l0.738,0.131c-2.066,11.723,3.338,20.666,6.743,24.954L33.874,80.997  z"></path><circle xmlns="http://www.w3.org/2000/svg" cx="27.345" cy="55.653" r="2.82"></circle><circle xmlns="http://www.w3.org/2000/svg" cx="34.08" cy="80.649" r="2.82"></circle><path xmlns="http://www.w3.org/2000/svg" d="M78.553,58.284l-0.75-0.021c0.262-9.375-3.322-18.348-10.093-25.265c-7.05-7.204-16.891-11.292-27.026-11.233l-0.005-0.75  c10.321-0.04,20.376,4.11,27.567,11.458C75.16,39.537,78.82,48.704,78.553,58.284z"></path><circle xmlns="http://www.w3.org/2000/svg" cx="78.128" cy="58.131" r="2.82"></circle><circle xmlns="http://www.w3.org/2000/svg" cx="40.819" cy="21.442" r="2.82"></circle><path xmlns="http://www.w3.org/2000/svg" d="M55.399,79.061c-22.622-1.116-37.959-15.928-44.77-29.418c-5.007-9.918-5.79-19.582-2.043-25.222  c2.418-3.64,6.575-5.361,12.009-4.983l-0.052,0.748c-5.164-0.361-9.073,1.249-11.333,4.65c-3.598,5.416-2.798,14.791,2.088,24.469  c6.715,13.302,21.837,27.906,44.138,29.006L55.399,79.061z"></path><circle xmlns="http://www.w3.org/2000/svg" cx="55.277" cy="78.637" r="2.82"></circle><path xmlns="http://www.w3.org/2000/svg" d="M23.574,83.267C13.12,81.553,6.04,74.011,5.536,64.052c-0.484-9.58,5.413-20.969,19.679-24.818l0.195,0.724  C11.548,43.698,5.816,54.734,6.286,64.014c0.386,7.634,5.162,16.505,17.41,18.513L23.574,83.267z"></path><circle xmlns="http://www.w3.org/2000/svg" cx="25.179" cy="39.64" r="2.82"></circle><path xmlns="http://www.w3.org/2000/svg" d="M72.426,94.555c-0.325,0-0.654-0.015-0.988-0.046c-6.336-0.589-12.075-6.442-15.354-15.658l0.707-0.252  c3.178,8.934,8.679,14.602,14.716,15.163c3.25,0.309,6.127-1.001,7.521-3.397c1.443-2.479,1.026-5.686-1.145-8.796l0.615-0.43  c2.345,3.36,2.773,6.86,1.178,9.603C78.278,93.144,75.556,94.555,72.426,94.555z"></path><path xmlns="http://www.w3.org/2000/svg" d="M63.068,18.924l-0.713-0.234c1.704-5.167,4.714-8.496,8.26-9.131c2.183-0.394,4.329,0.351,5.595,1.938  c1.251,1.568,1.453,3.679,0.556,5.79l-0.689-0.293c0.786-1.85,0.621-3.683-0.452-5.029c-1.094-1.371-2.963-2.01-4.877-1.667  C67.481,10.882,64.683,14.027,63.068,18.924z"></path><circle xmlns="http://www.w3.org/2000/svg" cx="62.771" cy="18.677" r="2.82"></circle></g><g id="SvgjsG1243" featureKey="UyNsn2-0" transform="matrix(1.8892879999538748,0,0,1.8892879999538748,118.90417515448337,21.495484955979265)" fill="#9896f1"><path d="M3.3 15.68 c-0.72 -0.21334 -1.3133 -0.53998 -1.78 -0.97998 s-0.7 -1.0733 -0.7 -1.9 c0 -1.04 0.36666 -1.8533 1.1 -2.44 s1.7467 -0.88 3.04 -0.88 c0.49334 0 1.0033 0.05334 1.53 0.16 s1.1833 0.3 1.97 0.58 l-1.2 2.16 c-0.41334 -0.14666 -0.77 -0.25666 -1.07 -0.33 s-0.64334 -0.11 -1.03 -0.11 c-0.36 0 -0.64334 0.05 -0.85 0.15 s-0.31 0.26334 -0.31 0.49 c0 0.18666 0.07666 0.32 0.23 0.4 s0.35668 0.16666 0.61002 0.26 l1.08 0.32 c0.36 0.10666 0.69666 0.23332 1.01 0.37998 s0.58 0.33 0.8 0.55 s0.39334 0.49666 0.52 0.83 s0.19 0.74 0.19 1.22 c0 0.50666 -0.10334 0.97666 -0.31 1.41 s-0.50666 0.81 -0.9 1.13 s-0.87334 0.57 -1.44 0.75 s-1.21 0.27 -1.93 0.27 c-0.28 0 -0.55 -0.01 -0.81 -0.03 s-0.51666 -0.05334 -0.77 -0.1 s-0.52 -0.11 -0.8 -0.19 s-0.58 -0.17334 -0.9 -0.28 c0.02666 -0.09334 0.05332 -0.2 0.07998 -0.32 s0.06666 -0.27 0.12 -0.45 s0.11334 -0.39666 0.18 -0.65 s0.15332 -0.56668 0.25998 -0.94002 c0.56 0.14666 1.03 0.25332 1.41 0.31998 s0.76334 0.1 1.15 0.1 c0.16 0 0.33 -0.01334 0.51 -0.04 s0.35 -0.07332 0.51 -0.13998 s0.29334 -0.15332 0.4 -0.25998 s0.16 -0.24666 0.16 -0.42 c0 -0.2 -0.07 -0.34 -0.21 -0.42 s-0.35 -0.16666 -0.63 -0.26 z M10.7 12.04 l-1.66 0 l1.32 -2.48 l2.9 0 l0.24 1.12 c0.30666 -0.34666 0.68332 -0.63 1.13 -0.85 s0.96332 -0.33 1.55 -0.33 c1.3733 0 2.3534 0.5 2.94 1.5 c0.33334 -0.46666 0.72668 -0.83332 1.18 -1.1 s1.02 -0.4 1.7 -0.4 c1.2 0 2.0766 0.31666 2.63 0.95 s0.83 1.6433 0.83 3.03 l0 6.52 l-3.04 0 l0 -5.98 c0 -0.64 -0.10334 -1.0933 -0.31 -1.36 s-0.56332 -0.4 -1.07 -0.4 c-0.21334 0 -0.41 0.02334 -0.59 0.07 s-0.33334 0.13332 -0.46 0.25998 s-0.22666 0.3 -0.3 0.52 s-0.11 0.51 -0.11 0.87 l0 6.02 l-3.04 0 l0 -6.02 c0 -0.66666 -0.11666 -1.12 -0.35 -1.36 s-0.55668 -0.36 -0.97002 -0.36 c-0.2 0 -0.38666 0.02 -0.56 0.06 s-0.33 0.12 -0.47 0.24 s-0.25 0.29334 -0.33 0.52 s-0.12 0.52666 -0.12 0.9 l0 6.02 l-3.04 0 l0 -7.96 z M33.120000000000005 15.42 c-0.13334 -0.02666 -0.2733 -0.04338 -0.41996 -0.050038 s-0.27332 -0.01 -0.37998 -0.01 c-0.56 0 -1.0133 0.08666 -1.36 0.26 s-0.52 0.47334 -0.52 0.9 c0 0.26666 0.06334 0.47666 0.19 0.63 s0.28332 0.26668 0.46998 0.34002 s0.38332 0.11668 0.58998 0.13002 s0.38332 0.02 0.52998 0.02 c0.26666 0 0.56666 -0.03334 0.9 -0.1 l0 -2.12 z M32.08 13.219999999999999 c0.10666 0 0.24996 0.0033594 0.42996 0.01002 s0.38334 0.01666 0.61 0.03 c-0.01334 -0.52 -0.19668 -0.85666 -0.55002 -1.01 s-0.81 -0.23 -1.37 -0.23 c-0.30666 0 -0.66 0.03666 -1.06 0.11 s-0.83334 0.18334 -1.3 0.33 l-0.32 -1.1 c-0.04 -0.14666 -0.09666 -0.36 -0.17 -0.64 s-0.12334 -0.5 -0.15 -0.66 c0.66666 -0.22666 1.2967 -0.39 1.89 -0.49 s1.13 -0.15 1.61 -0.15 c1.4133 0 2.5066 0.33666 3.28 1.01 s1.16 1.75 1.16 3.23 l0 5.86 c-0.52 0.14666 -1.12 0.29 -1.8 0.43 s-1.4133 0.21 -2.2 0.21 c-0.69334 0 -1.3233 -0.06 -1.89 -0.18 s-1.0533 -0.32 -1.46 -0.6 s-0.72 -0.64666 -0.94 -1.1 s-0.33 -1.0067 -0.33 -1.66 s0.13666 -1.2 0.41 -1.64 s0.62668 -0.79 1.06 -1.05 s0.92 -0.44334 1.46 -0.55 s1.0833 -0.16 1.63 -0.16 z M41.68 9.92 c0.16 -0.10666 0.38332 -0.21 0.66998 -0.31 s0.61 -0.15 0.97 -0.15 c0.30666 0 0.55666 0.01334 0.75 0.04 s0.29 0.03332 0.29 0.01998 l0 2.66 c-0.30666 -0.02666 -0.60666 -0.03332 -0.9 -0.01998 c-0.25334 0.02666 -0.51668 0.07 -0.79002 0.13 s-0.52334 0.17 -0.75 0.33 c-0.26666 0.18666 -0.45666 0.44 -0.57 0.76 s-0.17 0.76 -0.17 1.32 l0 5.32 l-3 0 l0 -7.94 l-1.62 0 l1.28 -2.54 l3.34 0 l0 0.78 c0.06666 -0.05334 0.12666 -0.10668 0.18 -0.16002 c0.05334 -0.04 0.10668 -0.08334 0.16002 -0.13 s0.10668 -0.08332 0.16002 -0.10998 z M46.56 12.059999999999999 l-1.24 0 l0 -2.52 l1.24 0 l0 -2.84 l3 0 l0 2.84 l2.48 0 l-1.4 2.52 l-1.18 0 l0.1 0.64 l0 3.14 c0 0.34666 0.02334 0.62666 0.07 0.84 s0.12 0.38 0.22 0.5 s0.22666 0.20334 0.38 0.25 s0.33 0.07 0.53 0.07 c0.14666 0 0.32666 -0.01666 0.54 -0.05 s0.44 -0.07 0.68 -0.11 l0.16 1.34 l0.12 1.2 c-0.38666 0.08 -0.74 0.14 -1.06 0.18 s-0.64666 0.06 -0.98 0.06 c-1.24 0 -2.16 -0.28666 -2.76 -0.86 s-0.9 -1.52 -0.9 -2.84 l0 -4.36 z M54.02 12.04 l-1.68 0 l1.32 -2.48 l2.9 0 l0.26 1.12 c0.33334 -0.36 0.73 -0.66 1.19 -0.9 s0.99 -0.36 1.59 -0.36 c1.2133 0 2.1134 0.32334 2.7 0.97 s0.88 1.67 0.88 3.07 l0 6.54 l-3.04 0 l0 -6.02 c0 -0.61334 -0.15 -1.0533 -0.45 -1.32 s-0.68334 -0.4 -1.15 -0.4 c-0.38666 0 -0.73332 0.13 -1.04 0.39 s-0.46 0.69 -0.46 1.29 l0 6.06 l-3.02 0 l0 -7.96 z M70.06 9.44 c0.69334 0 1.34 0.09668 1.94 0.29002 s1.1167 0.50334 1.55 0.93 s0.77334 0.98 1.02 1.66 s0.37 1.5 0.37 2.46 s-0.12334 1.78 -0.37 2.46 s-0.58666 1.2333 -1.02 1.66 s-0.95 0.73666 -1.55 0.93 s-1.2467 0.29 -1.94 0.29 c-0.70666 0 -1.3567 -0.09666 -1.95 -0.29 s-1.1067 -0.50334 -1.54 -0.93 s-0.77334 -0.98 -1.02 -1.66 s-0.37 -1.5 -0.37 -2.46 c0 -0.94666 0.12334 -1.7567 0.37 -2.43 s0.58666 -1.2267 1.02 -1.66 s0.94668 -0.75 1.54 -0.95 s1.2433 -0.3 1.95 -0.3 z M70.06 17.5 c0.6 0 1.07 -0.2 1.41 -0.6 s0.51 -1.1067 0.51 -2.12 s-0.17 -1.7233 -0.51 -2.13 s-0.81 -0.61 -1.41 -0.61 c-0.58666 0 -1.0567 0.21 -1.41 0.63 s-0.53 1.1233 -0.53 2.11 c0 1.0133 0.17334 1.72 0.52 2.12 s0.82 0.6 1.42 0.6 z M77.36 12.059999999999999 l-1.24 0 l0 -2.52 l1.24 0 l0 -2.84 l3 0 l0 2.84 l2.48 0 l-1.4 2.52 l-1.18 0 l0.1 0.64 l0 3.14 c0 0.34666 0.02334 0.62666 0.07 0.84 s0.12 0.38 0.22 0.5 s0.22666 0.20334 0.38 0.25 s0.33 0.07 0.53 0.07 c0.14666 0 0.32666 -0.01666 0.54 -0.05 s0.44 -0.07 0.68 -0.11 l0.16 1.34 l0.12 1.2 c-0.38666 0.08 -0.74 0.14 -1.06 0.18 s-0.64666 0.06 -0.98 0.06 c-1.24 0 -2.16 -0.28666 -2.76 -0.86 s-0.9 -1.52 -0.9 -2.84 l0 -4.36 z M86.84 9.56 l0 10.44 l-3.02 0 l0 -7.22 l0.1 -0.72 l-1.72 0 l1.36 -2.5 l3.28 0 z M86.76 8.7 l-3 0 l0 -2.72 l3 0 l0 2.72 z M89.86000000000001 12.059999999999999 l-1.56 0.000039062 l0 -2.52 l1.56 0 l0 -0.34 c0.02666 -0.49334 0.12666 -0.96668 0.3 -1.42 s0.43334 -0.83334 0.78 -1.14 c0.72 -0.72 1.7067 -1.08 2.96 -1.08 c0.36 0 0.69666 0.02334 1.01 0.07 s0.69668 0.14332 1.15 0.28998 l-0.2 0.34 l-0.44 0.74 l-0.44 0.74 l-0.2 0.34 l-0.5 0 c-0.42666 0 -0.76666 0.08666 -1.02 0.26 s-0.38 0.46 -0.38 0.86 l0 0.34 l2.6 0 l-1.36 2.52 l-1.32 0 l0.08 0.56 l0 7.38 l-3.02 0 l0 -7.94 z M95.86000000000001 9.56 l3.36 0 l1.9 7.8 l2.18 -7.8 l3.14 0 l-2.3 7.66 c-0.25334 0.84 -0.50334 1.6767 -0.75 2.51 s-0.49 1.65 -0.73 2.45 c-0.16 0.50666 -0.35 0.92666 -0.57 1.26 s-0.47334 0.6 -0.76 0.8 s-0.60332 0.34 -0.94998 0.42 s-0.72666 0.12 -1.14 0.12 c-0.33334 0 -0.69668 -0.03666 -1.09 -0.11 s-0.84334 -0.19 -1.35 -0.35 l1.16 -2.16 l0.49 0.07 l0.33 0.03 c0.13334 0 0.26668 -0.01 0.40002 -0.03 s0.26334 -0.07 0.39 -0.15 s0.24666 -0.21 0.36 -0.39 s0.21668 -0.43 0.31002 -0.75 l0.14 -0.6 l0.28 -0.34 l-1.76 0 z"></path></g>
			</g>
		</svg>
	